<?xml version="1.0" standalone="no"?>
<!DOCTYPE svg PUBLIC "-//W3C//DTD SVG 20010904//EN"
 "http://www.w3.org/TR/2001/REC-SVG-20010904/DTD/svg10.dtd">
<svg version="1.0" xmlns="http://www.w3.org/2000/svg"
 width="500.000000pt" height="500.000000pt" viewBox="0 0 500.000000 500.000000"
 preserveAspectRatio="xMidYMid meet">

<g transform="translate(0.000000,500.000000) scale(0.100000,-0.100000)"
fill="#000000" stroke="none">
<path d="M0 2500 l0 -2500 2500 0 2500 0 0 2500 0 2500 -2500 0 -2500 0 0
-2500z m1430 1482 c0 -398 -2 -460 -16 -480 l-15 -22 395 0 c217 0 397 -3 399
-8 3 -4 3 -28 0 -55 l-6 -47 -433 0 -434 0 -1 38 c-1 20 -3 261 -4 535 l-2
497 59 0 58 0 0 -458z m1360 163 l0 -55 -206 0 -205 0 15 -22 c9 -12 16 -42
16 -65 l0 -43 90 0 90 0 0 -55 0 -55 -90 0 -90 0 0 -65 0 -65 190 0 190 0 0
-55 0 -55 -245 0 -245 0 0 143 c0 79 -3 212 -7 295 l-6 152 251 0 252 0 0 -55z
m530 23 c105 -62 155 -148 155 -268 -1 -92 -30 -156 -100 -218 -72 -63 -111
-72 -312 -72 l-173 0 0 296 0 296 193 -4 c187 -3 193 -4 237 -30z m-1537 -855
c-18 -2 -48 -2 -65 0 -18 2 -4 4 32 4 36 0 50 -2 33 -4z m-283 -18 c-47 -8
-105 -21 -129 -29 -112 -41 -255 -156 -318 -257 -35 -57 -53 -73 -53 -46 0 13
40 76 74 117 17 20 15 20 -11 -4 -32 -28 -71 -99 -92 -165 -14 -44 -7 -51 13
-13 24 47 60 50 96 8 16 -20 6 -20 -24 -1 -22 15 -25 14 -50 -15 -14 -18 -26
-35 -26 -38 0 -4 16 -7 36 -7 28 0 39 5 44 20 8 20 8 20 16 1 7 -19 8 -19 15
0 6 14 8 9 8 -19 1 -45 -11 -72 -39 -87 -28 -15 -55 2 -79 48 l-20 37 -1 -52
c0 -38 4 -53 14 -53 9 0 12 -8 9 -24 -7 -33 15 -94 37 -106 17 -9 17 -7 3 40
-8 27 -13 60 -10 72 4 26 6 22 31 -64 9 -31 25 -67 36 -80 19 -23 19 -22 0 29
-14 38 -16 53 -7 56 9 3 7 13 -6 36 -11 18 -16 35 -13 38 7 8 2 14 59 -73 57
-86 213 -246 294 -300 56 -38 162 -88 170 -80 2 2 -11 9 -29 17 -81 33 -169
94 -236 163 -83 86 -96 119 -20 52 28 -25 56 -43 60 -40 5 3 17 0 26 -8 44
-38 257 -136 269 -125 2 2 -27 19 -64 37 -74 37 -71 51 4 26 70 -23 265 -67
271 -62 2 3 -17 11 -44 17 -27 7 -43 14 -37 16 7 3 45 -4 85 -15 69 -19 127
-25 348 -37 68 -4 89 -2 75 5 -30 15 304 0 590 -26 l70 -7 -25 20 c-19 15 -54
23 -140 32 -131 15 -190 27 -190 41 0 14 79 12 255 -4 83 -8 227 -16 320 -19
94 -2 148 -2 120 0 -73 5 -86 13 -50 29 l30 13 -40 2 c-22 1 -53 5 -70 9 -29
7 -29 8 10 9 78 2 360 -20 369 -30 6 -5 17 -9 25 -9 21 1 -19 34 -95 80 l-58
35 81 5 c45 3 84 8 88 11 6 7 -15 21 -129 91 -77 47 -63 49 21 3 35 -19 63
-31 63 -26 0 9 -105 108 -143 134 -27 18 -31 35 -12 50 6 4 1 10 -12 13 -13 4
-20 11 -16 17 4 6 0 8 -11 4 -9 -4 -15 -3 -11 2 5 9 -44 51 -59 51 -9 0 -102
60 -93 60 4 0 30 -11 57 -25 27 -14 54 -25 60 -25 5 0 10 20 10 45 0 43 -1 44
-41 55 -23 6 -52 16 -66 21 -21 8 -26 5 -38 -25 -8 -19 -18 -37 -23 -40 -4 -2
-73 25 -152 60 -337 151 -730 272 -985 303 -82 10 -131 19 -108 20 67 2 269
-27 383 -55 120 -30 425 -118 485 -141 22 -8 68 -26 102 -39 34 -13 107 -46
162 -74 55 -27 103 -50 105 -50 2 0 9 14 15 30 12 36 21 37 120 9 115 -32 121
-37 121 -114 0 -60 2 -65 31 -86 46 -32 131 -140 164 -207 29 -59 30 -60 78
-65 44 -6 187 -72 187 -88 0 -7 -126 -19 -195 -19 -41 0 -44 -3 -93 -69 -34
-47 -70 -82 -116 -112 -77 -50 -81 -60 -73 -165 8 -105 6 -109 -71 -133 -115
-36 -111 -38 -159 59 -23 47 -44 88 -45 91 -2 3 -48 0 -103 -7 -55 -7 -164
-19 -243 -26 -137 -11 -143 -13 -138 -32 3 -12 6 -33 6 -48 0 -21 8 -31 35
-44 26 -12 35 -23 36 -43 2 -39 -2 -55 -14 -63 -24 -15 3 -18 35 -5 89 37 148
30 205 -25 75 -73 75 -187 -1 -264 -12 -12 -28 -32 -36 -44 -23 -32 -126 -50
-345 -59 -163 -7 -196 -11 -235 -29 -26 -12 -65 -22 -92 -22 -43 0 -48 2 -48
23 0 26 9 26 -290 1 -166 -14 -186 -14 -196 0 -8 12 -29 16 -75 16 -35 0 -70
4 -77 9 -20 12 39 31 98 31 38 0 49 4 53 19 5 20 51 25 291 36 54 3 101 7 104
10 3 3 23 5 44 5 31 0 38 4 38 20 0 41 72 52 148 23 38 -14 53 -15 120 -4 42
7 154 15 249 18 151 5 175 4 198 -11 31 -20 43 -14 61 30 41 98 -22 205 -121
204 -37 -1 -148 -38 -120 -41 11 -1 -2 -5 -30 -10 -175 -29 -222 -22 -293 48
l-47 47 -110 0 c-149 1 -167 11 -177 91 -9 69 -41 142 -66 149 -9 2 -69 16
-132 31 -192 45 -312 86 -463 158 -240 113 -363 247 -403 439 -19 86 -14 181
13 252 37 99 179 237 287 279 86 33 228 66 281 66 44 -1 39 -3 -35 -14z m765
-76 c44 -16 46 -18 15 -14 l-35 5 30 -15 c37 -18 28 -19 -33 -3 -42 11 -44 13
-22 18 24 7 24 7 -10 18 -19 5 -26 10 -15 10 11 0 43 -8 70 -19z m-725 -17 c0
-4 -35 -18 -77 -31 -88 -25 -239 -91 -290 -125 -18 -13 -51 -39 -73 -60 -37
-34 -60 -45 -60 -28 0 12 70 76 123 111 63 43 179 95 253 115 101 27 124 30
124 18z m885 -32 c33 -13 32 -15 -10 -16 -23 0 -31 3 -23 8 8 5 1 7 -17 3 -16
-3 -24 -2 -16 1 11 5 11 8 0 16 -16 11 24 4 66 -12z m-88 4 c-3 -3 -12 -4 -19
-1 -8 3 -5 6 6 6 11 1 17 -2 13 -5z m58 -39 c39 -17 11 -18 -35 0 -23 9 -28
14 -15 14 11 0 34 -6 50 -14z m45 -36 c25 -14 -9 -10 -50 7 l-35 14 35 -6 c19
-4 42 -10 50 -15z m257 -45 c-3 -3 -12 -4 -19 -1 -8 3 -5 6 6 6 11 1 17 -2 13
-5z m58 -46 c118 -43 346 -141 352 -151 13 -21 -10 -16 -78 19 -88 44 -184 84
-299 126 -47 16 -92 34 -100 39 -26 16 39 -1 125 -33z m-1125 24 c0 -4 -62
-14 -137 -21 -153 -14 -242 -30 -334 -61 -58 -20 -84 -20 -63 -1 12 12 179 57
279 75 87 15 255 21 255 8z m1102 -53 c79 -28 159 -60 178 -71 19 -10 26 -16
15 -13 -32 10 -203 73 -285 105 -124 48 -61 34 92 -21z m-126 17 c82 -29 164
-64 164 -69 0 -5 -241 81 -249 88 -10 10 19 4 85 -19z m230 15 c16 -5 49 -14
73 -21 28 -7 40 -15 32 -19 -12 -8 53 -41 109 -55 19 -5 16 -2 -10 13 -19 11
-31 20 -26 21 13 0 217 -92 213 -97 -2 -2 -30 8 -62 22 -31 14 -59 24 -61 23
-1 -2 31 -21 72 -42 41 -21 73 -40 71 -42 -3 -4 -288 122 -412 181 -51 24 -51
32 1 16z m154 -51 c8 -5 11 -10 5 -10 -5 0 -17 5 -25 10 -8 5 -10 10 -5 10 6
0 17 -5 25 -10z m-1447 -104 c101 -13 141 -26 120 -39 -5 -3 -54 1 -108 8 -55
8 -175 18 -267 21 -93 4 -168 11 -168 16 0 13 304 9 423 -6z m1477 -52 c39
-15 69 -28 67 -30 -4 -4 -138 44 -146 52 -9 8 10 3 79 -22z m-1750 -54 c41
-15 136 -42 210 -60 169 -40 160 -37 160 -50 0 -15 -21 -13 -153 21 -211 53
-356 107 -365 137 -3 10 6 9 34 -4 22 -9 73 -29 114 -44z m-113 -35 c71 -71
165 -133 297 -196 58 -28 106 -55 106 -61 0 -27 -183 56 -281 128 -95 70 -189
155 -189 170 0 23 9 17 67 -41z m2041 21 c86 -33 175 -75 160 -76 -8 0 -224
87 -246 100 -31 18 -4 10 86 -24z m-1163 -23 c50 -9 82 -19 73 -21 -21 -4
-152 22 -188 38 l-25 11 25 -6 c14 -3 66 -13 115 -22z m-5 -43 c20 -6 21 -8 5
-8 -11 0 -31 4 -45 8 -20 6 -21 8 -5 8 11 0 31 -4 45 -8z m164 -31 c25 -11
-50 -2 -104 11 -27 7 -22 8 24 4 33 -3 69 -10 80 -15z m-82 -24 c29 -4 60 -11
68 -16 11 -7 8 -8 -10 -5 -149 28 -196 39 -204 46 -5 5 14 3 42 -5 28 -7 75
-16 104 -20z m-58 -15 c60 -11 111 -22 115 -26 3 -4 -13 -4 -37 0 -24 3 -41 3
-38 -2 6 -10 -176 13 -238 29 -66 18 -31 22 43 5 38 -9 80 -16 93 -15 13 0 -6
7 -41 14 -35 8 -66 17 -70 21 -3 4 10 4 29 0 19 -4 84 -16 144 -26z m819 13
c-7 -2 -19 -2 -25 0 -7 3 -2 5 12 5 14 0 19 -2 13 -5z m50 -10 c-7 -2 -19 -2
-25 0 -7 3 -2 5 12 5 14 0 19 -2 13 -5z m-1068 -18 c22 -7 31 -13 20 -13 -11
0 -38 5 -60 13 -22 7 -31 13 -20 13 11 0 38 -5 60 -13z m1118 8 c-7 -2 -19 -2
-25 0 -7 3 -2 5 12 5 14 0 19 -2 13 -5z m54 -9 c-3 -3 -12 -4 -19 -1 -8 3 -5
6 6 6 11 1 17 -2 13 -5z m73 -14 c20 -6 21 -8 5 -8 -11 0 -29 3 -40 8 -25 11
1 11 35 0z m-1120 -10 c17 -6 9 -7 -25 -3 -27 3 -52 7 -54 9 -8 7 54 2 79 -6z
m1325 -30 c8 -13 -15 -13 -35 0 -12 8 -11 10 7 10 12 0 25 -4 28 -10z m-925
-35 c127 -16 363 -52 425 -66 28 -6 8 -7 -63 -3 -57 2 -122 8 -146 14 -23 5
-118 21 -211 35 -235 35 -238 50 -5 20z m538 -82 c-10 -2 -26 -2 -35 0 -10 3
-2 5 17 5 19 0 27 -2 18 -5z m80 -10 c-10 -2 -28 -2 -40 0 -13 2 -5 4 17 4 22
1 32 -1 23 -4z m-1271 -9 c-3 -3 -12 -4 -19 -1 -8 3 -5 6 6 6 11 1 17 -2 13
-5z m1360 0 c-3 -3 -12 -4 -19 -1 -8 3 -5 6 6 6 11 1 17 -2 13 -5z m86 -11
c-7 -2 -19 -2 -25 0 -7 3 -2 5 12 5 14 0 19 -2 13 -5z m-463 -408 c31 -16 43
-33 54 -77 4 -17 2 -28 -4 -28 -5 0 -10 11 -10 24 0 32 -30 67 -71 82 -19 7
-26 13 -16 13 10 1 31 -6 47 -14z m20 -54 c18 -34 13 -51 -12 -42 -23 8 -37
31 -19 31 6 0 8 7 5 15 -9 22 14 18 26 -4z m-1183 -273 c-2 -18 -4 -4 -4 32 0
36 2 50 4 33 2 -18 2 -48 0 -65z m-63 2 c15 -41 23 -70 18 -65 -10 12 -52 122
-52 138 0 19 7 4 34 -73z m-99 10 c10 -11 16 -20 13 -20 -3 0 -13 9 -23 20
-10 11 -16 20 -13 20 3 0 13 -9 23 -20z m74 -93 c-2 -2 -17 12 -33 32 l-30 36
34 -32 c19 -18 32 -34 29 -36z m-83 -4 c35 -20 62 -38 60 -40 -2 -2 -34 14
-72 36 -38 23 -65 41 -60 41 5 0 38 -17 72 -37z m-21 -68 l60 -14 -55 6 c-30
3 -64 9 -75 14 -32 13 3 10 70 -6z m15 -75 c-75 -17 -100 -19 -100 -10 0 9 44
16 105 17 28 1 28 1 -5 -7z m60 -34 c0 -7 -122 -77 -127 -73 -2 3 24 21 59 40
67 39 68 39 68 33z m-30 -113 l-31 -38 43 -3 c32 -3 46 1 56 15 13 16 14 16 9
1 -6 -16 1 -18 66 -18 90 0 159 -29 201 -85 32 -41 55 -97 56 -132 0 -20 -5
-23 -44 -23 -41 0 -44 2 -50 31 -9 47 -41 85 -86 103 -57 23 -303 23 -360 0
-78 -31 -109 -114 -72 -197 32 -73 55 -80 267 -87 197 -6 214 -11 275 -72 93
-93 93 -243 0 -336 -64 -64 -75 -67 -290 -67 -214 0 -226 3 -289 66 -40 39
-59 76 -67 128 l-7 41 44 0 c44 0 44 0 64 -53 17 -44 27 -56 65 -74 40 -21 58
-23 190 -23 175 0 216 14 249 79 27 51 27 93 0 141 -38 67 -61 74 -264 80
l-180 5 -50 32 c-54 35 -90 81 -105 134 -44 153 68 309 223 309 39 0 47 4 76
40 17 22 34 40 37 40 3 0 -8 -17 -26 -37z m811 -247 c97 -34 159 -125 159
-230 -1 -79 -24 -131 -85 -184 -125 -110 -299 -72 -377 83 -76 151 44 345 212
344 30 0 71 -6 91 -13z m339 -170 c0 -154 -3 -187 -16 -200 -14 -15 0 -16 155
-16 l171 0 0 -45 0 -45 -205 0 -205 0 0 245 0 245 50 0 50 0 0 -184z m747 159
c106 -53 157 -177 121 -296 -16 -55 -73 -118 -132 -145 -46 -22 -65 -24 -198
-24 l-148 0 0 245 0 245 153 0 c144 0 156 -2 204 -25z m482 -7 c79 -258 135
-435 138 -445 4 -9 -9 -13 -45 -13 l-49 0 -13 45 -13 45 -77 0 -78 0 -14 -42
c-14 -42 -16 -43 -63 -46 l-47 -3 6 28 c4 15 39 126 77 246 l70 217 49 0 c46
0 49 -2 59 -32z"/>
<path d="M3000 3923 c0 -141 -3 -169 -17 -185 -16 -17 -11 -18 112 -18 111 0
135 3 173 21 114 56 133 213 37 298 -46 40 -91 51 -207 51 l-98 0 0 -167z"/>
<path d="M3310 2911 c0 -49 8 -71 26 -71 10 0 14 15 14 55 0 48 -2 55 -20 55
-17 0 -20 -7 -20 -39z"/>
<path d="M999 2811 c10 -18 40 -41 55 -41 3 0 11 10 17 23 11 20 11 21 -5 8
-15 -12 -21 -11 -47 8 -30 22 -30 22 -20 2z"/>
<path d="M1080 2655 c0 -14 42 -75 51 -75 6 0 2 14 -8 31 -19 32 -43 57 -43
44z"/>
<path d="M3658 2493 c6 -2 18 -2 25 0 6 3 1 5 -13 5 -14 0 -19 -2 -12 -5z"/>
<path d="M3640 2440 c-29 -6 -24 -7 30 -8 36 0 74 3 85 8 25 11 -63 11 -115 0z"/>
<path d="M3348 2393 c7 -3 16 -2 19 1 4 3 -2 6 -13 5 -11 0 -14 -3 -6 -6z"/>
<path d="M3418 2383 c6 -2 18 -2 25 0 6 3 1 5 -13 5 -14 0 -19 -2 -12 -5z"/>
<path d="M1918 2323 c7 -3 16 -2 19 1 4 3 -2 6 -13 5 -11 0 -14 -3 -6 -6z"/>
<path d="M1958 2313 c6 -2 18 -2 25 0 6 3 1 5 -13 5 -14 0 -19 -2 -12 -5z"/>
<path d="M2328 2313 c12 -2 30 -2 40 0 9 3 -1 5 -23 4 -22 0 -30 -2 -17 -4z"/>
<path d="M2455 2300 c40 -9 132 -13 124 -6 -2 2 -40 6 -84 9 -57 4 -69 3 -40
-3z"/>
<path d="M2073 2293 c9 -2 23 -2 30 0 6 3 -1 5 -18 5 -16 0 -22 -2 -12 -5z"/>
<path d="M2138 2283 c6 -2 18 -2 25 0 6 3 1 5 -13 5 -14 0 -19 -2 -12 -5z"/>
<path d="M2643 2283 c15 -2 37 -2 50 0 12 2 0 4 -28 4 -27 0 -38 -2 -22 -4z"/>
<path d="M2205 2270 c17 -5 75 -12 130 -14 84 -4 89 -4 35 3 -141 18 -196 21
-165 11z"/>
<path d="M3320 2234 c-36 -8 -121 -18 -190 -23 l-125 -8 96 -2 c93 -1 240 18
290 38 33 13 7 11 -71 -5z"/>
<path d="M2609 2225 c25 -11 70 -15 185 -14 l151 2 -105 8 c-289 21 -269 20
-231 4z"/>
<path d="M2278 2203 c12 -2 30 -2 40 0 9 3 -1 5 -23 4 -22 0 -30 -2 -17 -4z"/>
<path d="M2368 2193 c17 -2 47 -2 65 0 17 2 3 4 -33 4 -36 0 -50 -2 -32 -4z"/>
<path d="M3313 2080 c-1 -70 1 -86 7 -60 5 19 13 53 19 75 13 50 13 55 1 55
-5 0 -11 -19 -12 -42 -1 -41 -2 -41 -8 12 -6 47 -7 42 -7 -40z"/>
<path d="M3213 2065 c0 -38 2 -53 4 -32 2 20 2 52 0 70 -2 17 -4 1 -4 -38z"/>
<path d="M3252 2040 l1 -85 7 70 c3 39 3 77 -1 85 -5 8 -8 -23 -7 -70z"/>
<path d="M3132 2070 c0 -19 2 -27 5 -17 2 9 2 25 0 35 -3 9 -5 1 -5 -18z"/>
<path d="M3163 2035 c0 -38 2 -53 4 -32 2 20 2 52 0 70 -2 17 -4 1 -4 -38z"/>
<path d="M3183 2045 c0 -33 2 -45 4 -27 2 18 2 45 0 60 -2 15 -4 0 -4 -33z"/>
<path d="M3293 2050 c0 -30 2 -43 4 -27 2 15 2 39 0 55 -2 15 -4 2 -4 -28z"/>
<path d="M3233 2025 c0 -33 2 -45 4 -27 2 18 2 45 0 60 -2 15 -4 0 -4 -33z"/>
<path d="M2010 2061 c0 -15 39 -38 77 -46 31 -6 31 -5 24 22 -7 25 -12 28 -54
31 -28 2 -47 -1 -47 -7z"/>
<path d="M2152 2025 c0 -16 2 -22 5 -12 2 9 2 23 0 30 -3 6 -5 -1 -5 -18z"/>
<path d="M2170 2031 c0 -11 5 -23 10 -26 6 -3 10 3 10 14 0 11 -4 23 -10 26
-5 3 -10 -3 -10 -14z"/>
<path d="M2200 2025 c0 -14 5 -25 10 -25 6 0 10 11 10 25 0 14 -4 25 -10 25
-5 0 -10 -11 -10 -25z"/>
<path d="M2232 2030 c0 -14 2 -19 5 -12 2 6 2 18 0 25 -3 6 -5 1 -5 -13z"/>
<path d="M2261 2034 c0 -11 3 -14 6 -6 3 7 2 16 -1 19 -3 4 -6 -2 -5 -13z"/>
<path d="M2506 2015 c-23 -34 -20 -68 8 -94 17 -16 30 -20 50 -15 24 6 26 11
26 54 0 66 -7 80 -40 80 -18 0 -33 -8 -44 -25z"/>
<path d="M2302 2010 c0 -14 2 -19 5 -12 2 6 2 18 0 25 -3 6 -5 1 -5 -13z"/>
<path d="M2320 2013 c0 -16 6 -23 20 -23 14 0 20 6 19 23 -1 18 -2 18 -6 4 -5
-18 -5 -18 -19 0 -13 17 -13 17 -14 -4z"/>
<path d="M2026 2009 c-4 -8 -3 -26 3 -40 8 -21 10 -22 16 -6 4 10 3 28 -3 40
-8 18 -11 19 -16 6z"/>
<path d="M2070 1975 c0 -15 4 -24 10 -20 6 3 10 12 10 20 0 8 -4 17 -10 20 -6
4 -10 -5 -10 -20z"/>
<path d="M2152 1978 c3 -7 13 -15 22 -16 12 -3 17 1 14 10 -3 7 -13 15 -22 16
-12 3 -17 -1 -14 -10z"/>
<path d="M2413 1950 c0 -25 2 -35 4 -22 2 12 2 32 0 45 -2 12 -4 2 -4 -23z"/>
<path d="M2218 1973 c6 -2 18 -2 25 0 6 3 1 5 -13 5 -14 0 -19 -2 -12 -5z"/>
<path d="M3180 1954 c0 -8 5 -12 10 -9 6 4 8 11 5 16 -9 14 -15 11 -15 -7z"/>
<path d="M2463 1925 c-6 -17 11 -35 35 -35 9 0 10 5 2 19 -15 29 -29 35 -37
16z"/>
<path d="M2049 1901 c30 -27 69 -37 84 -22 15 15 -7 31 -45 31 -14 0 -35 3
-45 6 -14 4 -13 1 6 -15z"/>
<path d="M2332 1900 c0 -14 2 -19 5 -12 2 6 2 18 0 25 -3 6 -5 1 -5 -13z"/>
<path d="M2381 1904 c0 -11 3 -14 6 -6 3 7 2 16 -1 19 -3 4 -6 -2 -5 -13z"/>
<path d="M2162 1890 c0 -14 2 -19 5 -12 2 6 2 18 0 25 -3 6 -5 1 -5 -13z"/>
<path d="M2180 1890 c0 -13 5 -20 13 -17 6 2 12 10 12 17 0 7 -6 15 -12 18 -8
2 -13 -5 -13 -18z"/>
<path d="M2222 1890 c0 -14 2 -19 5 -12 2 6 2 18 0 25 -3 6 -5 1 -5 -13z"/>
<path d="M2610 1898 c0 -7 9 -26 19 -42 18 -27 19 -27 26 -8 3 12 1 30 -5 42
-12 22 -40 27 -40 8z"/>
<path d="M2270 1884 c0 -8 5 -12 10 -9 6 4 8 11 5 16 -9 14 -15 11 -15 -7z"/>
<path d="M2426 1875 c-11 -8 -32 -15 -48 -15 -35 0 -35 -9 0 -42 35 -33 85
-58 115 -58 47 0 87 12 87 27 0 8 5 11 13 7 7 -4 9 -3 4 2 -5 5 -25 14 -45 19
-22 6 -41 19 -47 32 -5 12 -20 26 -33 32 -28 13 -23 14 -46 -4z"/>
<path d="M2533 1875 c-24 -17 -30 -35 -13 -35 6 0 10 7 10 15 0 12 4 13 19 5
32 -16 63 -13 59 8 -4 23 -47 27 -75 7z"/>
<path d="M2628 1793 c7 -3 16 -2 19 1 4 3 -2 6 -13 5 -11 0 -14 -3 -6 -6z"/>
<path d="M2038 2583 c6 -2 18 -2 25 0 6 3 1 5 -13 5 -14 0 -19 -2 -12 -5z"/>
<path d="M2060 927 c-57 -30 -82 -76 -77 -143 6 -80 58 -134 136 -141 161 -14
224 216 78 286 -55 27 -84 26 -137 -2z"/>
<path d="M3040 818 c0 -107 -3 -138 -16 -157 l-16 -23 115 4 c98 2 120 6 143
24 51 38 69 71 69 129 0 58 -18 91 -69 129 -22 17 -45 22 -127 24 l-99 4 0
-134z"/>
<path d="M3698 821 c-9 -31 -20 -65 -24 -74 -5 -15 1 -17 44 -17 l50 0 -22 70
c-13 38 -24 72 -27 74 -2 3 -12 -21 -21 -53z"/>
</g>
</svg>
